<svg xmlns="http://www.w3.org/2000/svg" viewBox="0 0 128 128" role="img" aria-labelledby="mullusiMarkTitle mullusiMarkDesc">
  <!--
  Purpose: compact Mullusi brand mark for legacy references and favicon-compatible surfaces.
  Governance scope: deterministic vector adaptation of the new Mullusi node-arc monogram.
  Dependencies: SVG 1.1 rendering only.
  Invariants: square 128 viewBox, centered mark, readable at favicon size.
  -->
  <title id="mullusiMarkTitle">Mullusi mark</title>
  <desc id="mullusiMarkDesc">The Mullusi monogram with a governed arc and centered symbolic node.</desc>
  <defs>
    <linearGradient id="markCyan" x1="34" y1="19" x2="94" y2="33" gradientUnits="userSpaceOnUse">
      <stop offset="0" stop-color="#13c7d7"/>
      <stop offset="1" stop-color="#12b9c9"/>
    </linearGradient>
  </defs>
  <rect x="3" y="3" width="122" height="122" rx="26" fill="#f8fbff"/>
  <rect x="3.8" y="3.8" width="120.4" height="120.4" rx="25" fill="none" stroke="#dbeaf1" stroke-width="1.6"/>
  <g fill="none" stroke-linecap="round" stroke-linejoin="round">
    <path d="M36 31C52 19 76 19 92 31" stroke="url(#markCyan)" stroke-width="9"/>
    <path d="M37 94C23 84 18 59 30 39C32 36 34 33 37 31" stroke="#031447" stroke-width="14"/>
    <path d="M91 94C105 84 110 59 98 39C96 36 94 33 91 31" stroke="#031447" stroke-width="14"/>
    <path d="M37 31L64 64L91 31" stroke="#031447" stroke-width="14"/>
    <path d="M51 67V100" stroke="#031447" stroke-width="12"/>
    <path d="M77 67V100" stroke="#031447" stroke-width="12"/>
  </g>
  <circle cx="64" cy="43" r="7.5" fill="#12c4d2"/>
</svg>
